Coordinates
version=1
nRows=8
nColumns=33
inDegrees=yes

Units are S.I. units (second, meters, Newtons, ...)
Angles are in degrees.

endheader
time	ground_thorax_rot_x	ground_thorax_rot_y	ground_thorax_rot_z	ground_thorax_tx	ground_thorax_ty	ground_thorax_tz	clav_prot_r	clav_elev_r	scapula_abduction_r	scapula_elevation_r	scapula_upward_rot_r	scapula_winging_r	shoulder_elv_r	plane_of_elev_r	axial_rot_r	elbow_flexion_r	pro_sup_r	wrist_flex_r	wrist_dev_r	clav_prot_l	clav_elev_l	scapula_abduction_l	scapula_elevation_l	scapula_upward_rot_l	scapula_winging_l	shoulder_elv_l	plane_of_elev_l	axial_rot_l	elbow_flexion_l	pro_sup_l	wrist_flex_l	wrist_dev_l
      1.71000000	     22.59612245	     35.53788011	     11.66480805	      0.04389783	      1.01252073	     -0.05132356	    -15.38615926	     35.55093081	    -14.94497446	     26.69195365	     45.00000000	     -8.36196146	      9.28556850	    -90.00000000	     33.25116541	     75.82019062	     -0.36982630	     39.34428185	    -14.07147040	     18.96100044	     -8.01884439	    -45.00000000	      1.36039498	      4.85631634	     20.37799023	     13.52075212	    -45.88454647	    -20.07873343	     63.66271266	     15.58281107	     11.88094704	    -23.95718603
      1.72000000	     22.47217352	     35.76188078	     11.73747592	      0.04381152	      1.01287611	     -0.05138445	    -15.47559370	     35.37143654	    -14.85168941	     26.51359463	     45.00000000	     -8.46503972	      9.40113830	    -90.00000000	     33.13860942	     75.73989238	     -0.59121325	     39.23731372	    -13.98236520	     18.96302469	     -8.26600919	    -45.00000000	      1.56718424	      4.89671607	     20.26623879	     13.63464725	    -45.33323075	    -20.00855855	     63.25715313	     15.44864806	     11.94942324	    -23.67819568
      1.73000000	     22.53667484	     35.89932375	     11.66435320	      0.04345700	      1.01243080	     -0.05135755	    -15.46581580	     35.33577576	    -14.76662132	     26.48044214	     45.00000000	     -8.48041131	      9.61390090	    -90.00000000	     32.93970364	     76.27964577	     -2.54070280	     38.45423057	    -12.66119126	     19.32925878	     -8.54415638	    -45.00000000	      1.35306128	      3.41570930	     20.24799056	     14.57506315	    -43.45725251	    -20.03819587	     63.21648839	     13.78388099	     13.57769592	    -22.50427414
      1.74000000	     22.40653245	     36.12479389	     11.72743079	      0.04341879	      1.01278141	     -0.05141395	    -15.56702759	     35.12433902	    -14.65200912	     26.27151061	     45.00000000	     -8.60051411	      9.73637397	    -90.00000000	     32.82338049	     76.16181377	     -2.76256630	     38.34246066	    -12.59053392	     19.33073771	     -8.81057610	    -45.00000000	      1.57985817	      3.46956415	     20.12532493	     14.67804167	    -42.88852828	    -19.95717572	     62.74207046	     13.67387060	     13.60241712	    -22.23551104
      1.75000000	     22.26230292	     36.15791891	     11.84627553	      0.04352701	      1.01262900	     -0.05122972	    -15.57364133	     34.98785057	    -14.43689371	     26.14237340	     45.00000000	     -8.66629816	      9.85350368	    -90.00000000	     32.71520571	     76.30067386	     -2.92272710	     38.23421436	    -12.49674382	     19.33033493	     -9.02567485	    -45.00000000	      1.76444820	      3.51925534	     20.02464656	     14.80959348	    -42.43596419	    -19.86890706	     62.31290690	     13.60898965	     13.73124820	    -21.97382143
      1.76000000	     22.33367860	     36.45752738	     11.51864739	      0.04316263	      1.01304994	     -0.05163664	    -15.73751474	     34.64862330	    -14.27333363	     25.80951576	     45.00000000	     -8.85568972	     10.11052071	    -90.00000000	     32.49916430	     76.23527286	     -3.57260103	     37.53138134	    -12.04723065	     19.40397317	     -9.33328595	    -45.00000000	      1.93623220	      3.27464253	     19.89858999	     14.87186746	    -41.11975291	    -19.45021944	     61.77094024	     13.20842060	     14.34342692	    -21.28261990
      1.77000000	     22.51698572	     36.53660336	     11.16987464	      0.04294038	      1.01221124	     -0.05140117	    -15.80750840	     34.53250668	    -14.25314171	     25.69435324	     45.00000000	     -8.92286728	     10.63748966	    -90.00000000	     32.18344706	     77.15795015	     -5.67828950	     36.20916665	    -10.50068750	     19.80179574	     -9.61277951	    -45.00000000	      1.65649777	      1.59698354	     19.89006452	     15.69581832	    -38.75648878	    -18.76872435	     61.48559540	     11.63566348	     16.39441105	    -19.98905932
      1.78000000	     22.47603707	     36.96608190	     11.37497133	      0.04259253	      1.01205980	     -0.05117409	    -15.90908332	     34.82053288	    -14.97276754	     25.95176935	     45.00000000	     -8.80944585	     11.02572980	    -89.07793496	     32.65748844	     76.91505200	     -9.33128494	     36.39716598	     -8.94787277	     20.45268229	    -10.29080696	    -45.00000000	      1.31468033	     -1.27507686	     19.76349710	     17.81773592	    -36.01860347	    -19.91766325	     61.24218115	      8.98337308	     17.27603310	    -18.99582040
